<svg width="17" height="16" viewBox="0 0 17 16" fill="none" xmlns="http://www.w3.org/2000/svg">
<mask id="path-1-outside-1_987_45486" maskUnits="userSpaceOnUse" x="-1.16258" y="0.319025" width="8.58352" height="15.8307" fill="black">
<rect fill="black" x="-1.16258" y="0.319025" width="8.58352" height="15.8307"/>
<path fill-rule="evenodd" clip-rule="evenodd" d="M2.72529 14.7896C3.74345 16.2397 4.90895 14.5738 5.3285 11.0688C5.74806 7.56371 5.26279 3.54681 4.24463 2.09675C3.22647 0.646697 2.06097 2.31259 1.64142 5.81763C1.22186 9.32267 1.70713 13.3396 2.72529 14.7896ZM3.01232 13.5946C3.87736 14.8266 4.86242 13.4543 5.21251 10.5296C5.5626 7.60489 5.14515 4.23521 4.28011 3.00323C3.41507 1.77124 2.43001 3.14347 2.07992 6.06819C1.72983 8.99291 2.14728 12.3626 3.01232 13.5946Z"/>
</mask>
<path fill-rule="evenodd" clip-rule="evenodd" d="M2.72529 14.7896C3.74345 16.2397 4.90895 14.5738 5.3285 11.0688C5.74806 7.56371 5.26279 3.54681 4.24463 2.09675C3.22647 0.646697 2.06097 2.31259 1.64142 5.81763C1.22186 9.32267 1.70713 13.3396 2.72529 14.7896ZM3.01232 13.5946C3.87736 14.8266 4.86242 13.4543 5.21251 10.5296C5.5626 7.60489 5.14515 4.23521 4.28011 3.00323C3.41507 1.77124 2.43001 3.14347 2.07992 6.06819C1.72983 8.99291 2.14728 12.3626 3.01232 13.5946Z" fill="black"/>
<path fill-rule="evenodd" clip-rule="evenodd" d="M2.72529 14.7896C3.74345 16.2397 4.90895 14.5738 5.3285 11.0688C5.74806 7.56371 5.26279 3.54681 4.24463 2.09675C3.22647 0.646697 2.06097 2.31259 1.64142 5.81763C1.22186 9.32267 1.70713 13.3396 2.72529 14.7896ZM3.01232 13.5946C3.87736 14.8266 4.86242 13.4543 5.21251 10.5296C5.5626 7.60489 5.14515 4.23521 4.28011 3.00323C3.41507 1.77124 2.43001 3.14347 2.07992 6.06819C1.72983 8.99291 2.14728 12.3626 3.01232 13.5946Z" fill="black"/>
<path d="M5.3285 11.0688L5.55313 11.0956L5.3285 11.0688ZM2.72529 14.7896L2.54014 14.9196L2.54014 14.9196L2.72529 14.7896ZM4.24463 2.09675L4.05948 2.22676L4.05948 2.22676L4.24463 2.09675ZM1.64142 5.81763L1.86604 5.84452L1.64142 5.81763ZM5.21251 10.5296L4.98789 10.5027L5.21251 10.5296ZM3.01232 13.5946L2.82717 13.7246L3.01232 13.5946ZM4.28011 3.00323L4.46526 2.87323L4.46526 2.87323L4.28011 3.00323ZM2.07992 6.06819L1.85529 6.04131L2.07992 6.06819ZM5.10388 11.0419C4.89516 12.7856 4.50392 14.0317 4.06601 14.6577C3.84549 14.9728 3.64807 15.0826 3.49644 15.0867C3.34975 15.0907 3.14762 14.9974 2.91044 14.6596L2.54014 14.9196C2.81204 15.3069 3.13741 15.5491 3.50872 15.539C3.87509 15.5291 4.18617 15.2752 4.43674 14.917C4.94101 14.1963 5.3423 12.857 5.55313 11.0956L5.10388 11.0419ZM4.05948 2.22676C4.5343 2.90299 4.90564 4.22119 5.10111 5.83927C5.29517 7.44559 5.31143 9.30793 5.10388 11.0419L5.55313 11.0956C5.76513 9.32453 5.74854 7.4259 5.55031 5.785C5.3535 4.15585 4.97312 2.74058 4.42978 1.96675L4.05948 2.22676ZM1.86604 5.84452C2.07476 4.10083 2.46601 2.85464 2.90391 2.22872C3.12443 1.91353 3.32185 1.80376 3.47348 1.79965C3.62017 1.79567 3.8223 1.88896 4.05948 2.22676L4.42978 1.96675C4.15788 1.57952 3.83251 1.33728 3.4612 1.34736C3.09483 1.3573 2.78376 1.61118 2.53318 1.96934C2.02891 2.69012 1.62763 4.02939 1.41679 5.79074L1.86604 5.84452ZM2.91044 14.6596C2.43562 13.9834 2.06428 12.6652 1.86881 11.0471C1.67475 9.44079 1.65849 7.57845 1.86604 5.84452L1.41679 5.79074C1.20479 7.56185 1.22138 9.46048 1.41961 11.1014C1.61643 12.7305 1.9968 14.1458 2.54014 14.9196L2.91044 14.6596ZM4.98789 10.5027C4.81389 11.9563 4.48522 12.9826 4.12174 13.4889C3.93914 13.7433 3.78259 13.8199 3.67068 13.8205C3.56082 13.821 3.39674 13.7484 3.19747 13.4646L2.82717 13.7246C3.06043 14.0568 3.34386 14.2746 3.67294 14.2729C3.99996 14.2713 4.27375 14.0531 4.4893 13.7528C4.92214 13.1498 5.26104 12.0276 5.43714 10.5565L4.98789 10.5027ZM4.09496 3.13323C4.4936 3.70096 4.80949 4.80352 4.97747 6.15946C5.14405 7.50407 5.16067 9.05929 4.98789 10.5027L5.43714 10.5565C5.61445 9.07522 5.59739 7.48323 5.4265 6.10383C5.25701 4.73575 4.93166 3.53748 4.46526 2.87323L4.09496 3.13323ZM2.30454 6.09508C2.47854 4.64151 2.80721 3.61521 3.17069 3.10887C3.35329 2.8545 3.50984 2.77788 3.62175 2.77732C3.73161 2.77677 3.89569 2.84943 4.09496 3.13323L4.46526 2.87323C4.232 2.54103 3.94857 2.32322 3.61949 2.32487C3.29247 2.3265 3.01868 2.54474 2.80313 2.84502C2.37029 3.44798 2.03139 4.57016 1.85529 6.04131L2.30454 6.09508ZM3.19747 13.4646C2.79883 12.8968 2.48294 11.7943 2.31496 10.4383C2.14838 9.09373 2.13176 7.53852 2.30454 6.09508L1.85529 6.04131C1.67798 7.52259 1.69504 9.11457 1.86593 10.494C2.03541 11.8621 2.36077 13.0603 2.82717 13.7246L3.19747 13.4646Z" fill="black" mask="url(#path-1-outside-1_987_45486)"/>
<mask id="path-3-outside-2_987_45486" maskUnits="userSpaceOnUse" x="1.37793" y="-0.516602" width="16" height="9" fill="black">
<rect fill="black" x="1.37793" y="-0.516602" width="16" height="9"/>
<path fill-rule="evenodd" clip-rule="evenodd" d="M10.7893 7.45162C14.614 7.57448 17.1084 6.11579 16.3607 4.19357C15.613 2.27134 11.9063 0.613474 8.08168 0.490623C4.25702 0.367771 1.76265 1.82645 2.51035 3.74868C2.51159 3.75188 2.51284 3.75507 2.5141 3.75827C2.90535 3.01842 3.33748 2.5301 3.74763 2.37954C4.48227 1.62946 6.03706 1.17112 8.02699 1.23503C11.2184 1.33755 14.3205 2.74458 14.9558 4.37772C15.5911 6.01087 13.5189 7.2517 10.3275 7.14919C8.44305 7.08866 6.58977 6.57332 5.25707 5.82517C5.25456 5.935 5.25055 6.04628 5.24501 6.15884C6.78085 6.89332 8.76862 7.38672 10.7893 7.45162Z"/>
</mask>
<path fill-rule="evenodd" clip-rule="evenodd" d="M10.7893 7.45162C14.614 7.57448 17.1084 6.11579 16.3607 4.19357C15.613 2.27134 11.9063 0.613474 8.08168 0.490623C4.25702 0.367771 1.76265 1.82645 2.51035 3.74868C2.51159 3.75188 2.51284 3.75507 2.5141 3.75827C2.90535 3.01842 3.33748 2.5301 3.74763 2.37954C4.48227 1.62946 6.03706 1.17112 8.02699 1.23503C11.2184 1.33755 14.3205 2.74458 14.9558 4.37772C15.5911 6.01087 13.5189 7.2517 10.3275 7.14919C8.44305 7.08866 6.58977 6.57332 5.25707 5.82517C5.25456 5.935 5.25055 6.04628 5.24501 6.15884C6.78085 6.89332 8.76862 7.38672 10.7893 7.45162Z" fill="black"/>
<path fill-rule="evenodd" clip-rule="evenodd" d="M10.7893 7.45162C14.614 7.57448 17.1084 6.11579 16.3607 4.19357C15.613 2.27134 11.9063 0.613474 8.08168 0.490623C4.25702 0.367771 1.76265 1.82645 2.51035 3.74868C2.51159 3.75188 2.51284 3.75507 2.5141 3.75827C2.90535 3.01842 3.33748 2.5301 3.74763 2.37954C4.48227 1.62946 6.03706 1.17112 8.02699 1.23503C11.2184 1.33755 14.3205 2.74458 14.9558 4.37772C15.5911 6.01087 13.5189 7.2517 10.3275 7.14919C8.44305 7.08866 6.58977 6.57332 5.25707 5.82517C5.25456 5.935 5.25055 6.04628 5.24501 6.15884C6.78085 6.89332 8.76862 7.38672 10.7893 7.45162Z" fill="black"/>
<path d="M16.3607 4.19357L16.1498 4.27558L16.3607 4.19357ZM10.7893 7.45162L10.7966 7.22551L10.7893 7.45162ZM8.08168 0.490623L8.07442 0.716735L8.08168 0.490623ZM2.51035 3.74868L2.29951 3.83069L2.29951 3.8307L2.51035 3.74868ZM2.5141 3.75827L2.30364 3.84125L2.4841 4.29894L2.71409 3.86402L2.5141 3.75827ZM3.74763 2.37954L3.82559 2.59191L3.87352 2.57432L3.90925 2.53784L3.74763 2.37954ZM8.02699 1.23503L8.01973 1.46115L8.02699 1.23503ZM14.9558 4.37772L14.745 4.45974L14.9558 4.37772ZM10.3275 7.14919L10.3202 7.3753L10.3275 7.14919ZM5.25707 5.82517L5.36782 5.6279L5.0395 5.44359L5.0309 5.82L5.25707 5.82517ZM5.24501 6.15884L5.01905 6.14772L5.01165 6.29801L5.1474 6.36293L5.24501 6.15884ZM16.1498 4.27558C16.3161 4.70297 16.2989 5.09022 16.1383 5.43544C15.975 5.78659 15.6533 6.11478 15.1754 6.39421C14.2173 6.95451 12.685 7.28617 10.7966 7.22551L10.7821 7.67774C12.7184 7.73993 14.3455 7.40368 15.4038 6.78479C15.9342 6.47462 16.335 6.08541 16.5485 5.62627C16.7649 5.16119 16.7791 4.64528 16.5715 4.11155L16.1498 4.27558ZM8.07442 0.716735C9.95864 0.777258 11.8124 1.21625 13.2827 1.87384C14.7654 2.53701 15.8092 3.39985 16.1498 4.27558L16.5715 4.11155C16.1644 3.06505 14.9811 2.13785 13.4674 1.46081C11.9412 0.778209 10.0294 0.326838 8.08894 0.26451L8.07442 0.716735ZM2.72119 3.66667C2.55495 3.23928 2.57213 2.85203 2.73271 2.50681C2.89606 2.15566 3.21776 1.82746 3.69558 1.54804C4.6537 0.987739 6.18604 0.656079 8.07442 0.716735L8.08894 0.26451C6.15266 0.202314 4.52549 0.53857 3.46718 1.15746C2.93679 1.46763 2.53605 1.85684 2.32247 2.31598C2.10613 2.78105 2.0919 3.29697 2.29951 3.83069L2.72119 3.66667ZM2.72457 3.67529C2.72343 3.67242 2.72231 3.66954 2.72119 3.66667L2.29951 3.8307C2.30088 3.83421 2.30225 3.83773 2.30364 3.84125L2.72457 3.67529ZM2.71409 3.86402C2.90379 3.5053 3.09978 3.21464 3.29259 2.99852C3.48697 2.78064 3.66811 2.64972 3.82559 2.59191L3.66967 2.16717C3.41699 2.25992 3.17699 2.44844 2.95496 2.69732C2.73136 2.94796 2.51566 3.27138 2.31412 3.65251L2.71409 3.86402ZM3.90925 2.53784C4.2391 2.20106 4.77028 1.91421 5.47651 1.72019C6.18003 1.5269 7.04303 1.42977 8.01973 1.46115L8.03426 1.00892C7.02103 0.976375 6.11167 1.07646 5.35664 1.28389C4.60434 1.49058 3.9908 1.80795 3.58601 2.22124L3.90925 2.53784ZM8.01973 1.46115C9.58679 1.51148 11.1308 1.88246 12.3565 2.43842C13.5941 2.99974 14.4601 3.7274 14.745 4.45974L15.1666 4.29571C14.8162 3.3949 13.8136 2.60247 12.5434 2.02636C11.2614 1.44489 9.65862 1.0611 8.03426 1.00892L8.01973 1.46115ZM14.745 4.45974C14.8836 4.81608 14.8711 5.13663 14.7431 5.42142C14.6126 5.71166 14.3524 5.98548 13.9604 6.22024C13.1735 6.69141 11.906 6.97355 10.3347 6.92308L10.3202 7.3753C11.9404 7.42734 13.3046 7.14032 14.1929 6.60842C14.6384 6.34164 14.9766 6.00545 15.1558 5.60692C15.3373 5.20293 15.3457 4.75595 15.1666 4.29571L14.745 4.45974ZM10.3347 6.92308C8.48275 6.86359 6.66563 6.35646 5.36782 5.6279L5.14633 6.02244C6.51391 6.79018 8.40334 7.31373 10.3202 7.3753L10.3347 6.92308ZM5.0309 5.82C5.02844 5.92782 5.02449 6.03711 5.01905 6.14772L5.47096 6.16996C5.4766 6.05546 5.48069 5.94219 5.48324 5.83034L5.0309 5.82ZM10.7966 7.22551C8.80524 7.16155 6.84847 6.67489 5.34261 5.95475L5.1474 6.36293C6.71322 7.11175 8.732 7.61189 10.7821 7.67774L10.7966 7.22551Z" fill="black" mask="url(#path-3-outside-2_987_45486)"/>
</svg>
